<svg width="48" height="48" viewBox="0 0 48 48" fill="none" xmlns="http://www.w3.org/2000/svg">
<path d="M2 9.37909V10.1394L2.73906 10.0898C3.46094 10.0402 3.46094 10.0402 3.46094 9.37909C3.46094 8.71795 3.46094 8.71795 2.73906 8.66836L2 8.61878V9.37909Z" fill="#121A2B"/>
<path d="M4.92188 9.3795V10.1233H10.0781H15.2344V9.3795V8.63572H10.0781H4.92188V9.3795Z" fill="#121A2B"/>
<path d="M2.275 11.7099C2.03438 11.9413 2 13.2305 2 23.4948C2 32.8665 2.03438 35.0813 2.22344 35.2301C2.36094 35.3292 3.52969 35.4284 5.17969 35.4449L7.89531 35.4945L8.15313 36.2218C8.75469 37.9407 10.9375 39.23 12.7937 38.9655C14.4094 38.7341 15.8703 37.6102 16.4031 36.1887L16.6953 35.4119L24.7563 35.4449L32.8172 35.4945L33.075 36.2218C33.6766 37.9407 35.8422 39.2134 37.7328 38.9655C39.4 38.7506 41.1188 37.3292 41.4453 35.8912L41.5656 35.4119H43.5766C44.9172 35.4119 45.6562 35.3458 45.7938 35.2135C45.9484 35.0648 46 33.8747 46 30.9161V26.8005L42.8891 22.1394C41.1703 19.5775 39.5891 17.2304 39.3484 16.9329L38.9359 16.404H35.1547H31.3906V14.2884C31.3906 12.652 31.3391 12.1066 31.1156 11.8091L30.8578 11.4454H16.6953C4.0625 11.4454 2.51562 11.4785 2.275 11.7099ZM29.8438 13.5942V14.2553H17.3828H4.92188V14.9991V15.7429H17.3828H29.8438V23.5113V31.2797H23.6562H17.4688V31.9409V32.602H23.6562H29.8438V33.3458V34.0896H23.2266H16.6266L16.4203 33.4119C16.1453 32.5524 15.0797 31.3954 14.1516 30.9657C11.9 29.9244 8.77188 31.1806 8.13594 33.3789L7.94688 34.0896H5.74688H3.54688V33.3458V32.602H5.35156H7.15625V31.9409V31.2797H5.35156H3.54688V22.1064V12.933H16.6953H29.8438V13.5942ZM38.6953 18.5031L39.125 19.1312L36.1172 19.2139C33.6766 19.28 33.0578 19.3461 32.9375 19.5444C32.6797 19.9246 32.7141 26.536 32.9719 26.784C33.1266 26.9327 34.6562 26.9823 38.8156 26.9823H44.4531V29.131V31.2797H43.4219H42.3906V31.9409V32.602H43.4219H44.4531V33.3458V34.0896H43.0266H41.5828L41.3594 33.4119C41.05 32.5359 39.9844 31.3954 39.0734 30.9657C38.5578 30.7178 37.9906 30.6186 37.2172 30.6186C35.2578 30.6186 33.625 31.7095 33.075 33.3954C32.8688 34.0731 32.8344 34.0896 32.1297 34.0896H31.3906V25.9906V17.8916H34.8281H38.2484L38.6953 18.5031ZM41.6172 22.8502C42.4078 24.0237 43.1469 25.1476 43.25 25.3294C43.4391 25.66 43.3875 25.66 38.8672 25.66H34.3125V23.1807V20.7014H37.2344H40.1562L41.6172 22.8502ZM13.9625 32.5194C15.3719 33.5607 15.5781 35.3623 14.4438 36.5689C12.0891 39.0812 8.05 36.2879 9.78594 33.3623C10.6109 31.9409 12.6219 31.5442 13.9625 32.5194ZM38.4203 32.2384C39.8984 32.9491 40.5172 34.602 39.8125 35.9738C38.4719 38.668 34.2953 37.7093 34.3125 34.7177C34.3297 32.7342 36.6156 31.3458 38.4203 32.2384Z" fill="#121A2B"/>
<path d="M11.4531 34.7507V35.4119H12.2266H13V34.7507V34.0896H12.2266H11.4531V34.7507Z" fill="#121A2B"/>
<path d="M36.5123 34.3706C36.4779 34.5359 36.4779 34.8334 36.5123 35.0317C36.581 35.3458 36.7014 35.4119 37.2514 35.4119C37.9217 35.4119 37.9217 35.4119 37.9217 34.7507C37.9217 34.0896 37.9217 34.0896 37.2514 34.0896C36.7357 34.0896 36.5639 34.1557 36.5123 34.3706Z" fill="#121A2B"/>
<path d="M6.71813 25.1526C6.35101 25.1526 6.03751 25.0732 5.77763 24.9146C5.52188 24.7559 5.32801 24.5377 5.19601 24.26C5.06813 23.9823 5.01451 23.667 5.03513 23.3139C5.04751 22.949 5.1197 22.6158 5.2517 22.3143C5.38782 22.0128 5.57138 21.753 5.80238 21.5348C6.03338 21.3166 6.30357 21.148 6.61295 21.029C6.92232 20.906 7.26057 20.8446 7.6277 20.8446C8.1392 20.8446 8.54345 20.9616 8.84045 21.1956C9.14157 21.4297 9.30245 21.755 9.32307 22.1715H8.38876C8.35988 21.989 8.2712 21.8462 8.1227 21.7431C7.9742 21.636 7.76795 21.5824 7.50395 21.5824C7.19457 21.5824 6.92026 21.6538 6.68101 21.7966C6.44588 21.9354 6.2582 22.1318 6.11795 22.3857C5.98182 22.6356 5.90757 22.9291 5.8952 23.2663C5.8787 23.5083 5.90963 23.7186 5.98801 23.8971C6.06638 24.0716 6.18601 24.2065 6.34688 24.3017C6.50776 24.3929 6.7037 24.4385 6.9347 24.4385C7.18632 24.4385 7.40495 24.3949 7.59057 24.3076C7.78032 24.2164 7.93707 24.0914 8.06082 23.9328C8.18457 23.7701 8.27738 23.5857 8.33926 23.3794H7.27501L7.38638 22.7784H9.29213L8.8652 25.0812H8.10413L8.12888 24.5516C8.01751 24.6825 7.8917 24.7936 7.75145 24.8848C7.61532 24.9721 7.4627 25.0375 7.29357 25.0812C7.12445 25.1288 6.93263 25.1526 6.71813 25.1526Z" fill="#121A2B"/>
<path d="M10.0238 25.0812L10.7849 20.916H12.3874C12.7051 20.916 12.9649 20.9695 13.1671 21.0766C13.3692 21.1798 13.5156 21.3186 13.6064 21.4931C13.6971 21.6637 13.7384 21.8541 13.7301 22.0644C13.7177 22.3381 13.6352 22.5801 13.4826 22.7903C13.3341 22.9966 13.1258 23.1592 12.8577 23.2782C12.5937 23.3933 12.2843 23.4508 11.9296 23.4508H11.1561L10.8591 25.0812H10.0238ZM12.307 25.0812L11.7501 23.2485H12.6226L13.2227 25.0812H12.307ZM11.2675 22.8677H11.9976C12.2575 22.8677 12.4658 22.8022 12.6226 22.6713C12.7793 22.5404 12.8618 22.3619 12.8701 22.1358C12.8783 21.9731 12.8309 21.8422 12.7277 21.7431C12.6287 21.6399 12.4637 21.5883 12.2327 21.5883H11.5026L11.2675 22.8677Z" fill="#121A2B"/>
<path d="M14.0077 25.0812L16.3527 20.916H17.3056L18.1162 25.0812H17.2314L16.6621 21.8145L14.8863 25.0812H14.0077ZM14.8306 24.1351L15.1586 23.5162H17.4417L17.5469 24.1351H14.8306ZM16.2785 20.6006L16.2599 20.071L17.6831 19.3213L17.714 19.9342L16.2785 20.6006Z" fill="#121A2B"/>
<path d="M19.5514 25.0812L20.2011 21.5526H18.9326L19.0502 20.916H22.4162L22.2986 21.5526H21.0302L20.3867 25.0812H19.5514Z" fill="#121A2B"/>
<path d="M22.6183 25.0812L23.3793 20.916H24.2146L23.4536 25.0812H22.6183Z" fill="#121A2B"/>
<path d="M26.185 25.1526C25.8715 25.1526 25.5992 25.101 25.3682 24.9979C25.1413 24.8947 24.9722 24.744 24.8608 24.5456C24.7495 24.3473 24.7165 24.1073 24.7619 23.8257H25.6467C25.626 23.9566 25.6384 24.0716 25.6838 24.1708C25.7333 24.2699 25.8117 24.3473 25.9189 24.4028C26.0262 24.4544 26.152 24.4802 26.2963 24.4802C26.4407 24.4802 26.5665 24.4564 26.6738 24.4088C26.7852 24.3572 26.8697 24.2898 26.9275 24.2065C26.9893 24.1192 27.0244 24.0161 27.0327 23.8971C27.0368 23.8177 27.0203 23.7483 26.9832 23.6888C26.9502 23.6253 26.9027 23.5698 26.8408 23.5222C26.779 23.4706 26.7047 23.427 26.6181 23.3913C26.5315 23.3516 26.4387 23.3159 26.3397 23.2842C26.2407 23.2485 26.1375 23.2128 26.0303 23.1771C25.7374 23.0819 25.5167 22.949 25.3682 22.7784C25.2197 22.6078 25.1517 22.3996 25.164 22.1536C25.1764 21.8878 25.2568 21.6578 25.4053 21.4634C25.5538 21.265 25.7518 21.1123 25.9993 21.0052C26.251 20.8981 26.5356 20.8446 26.8532 20.8446C27.142 20.8446 27.3874 20.8922 27.5895 20.9874C27.7958 21.0826 27.9484 21.2214 28.0474 21.4039C28.1505 21.5824 28.1856 21.7986 28.1526 22.0525H27.2554C27.276 21.9454 27.2637 21.8521 27.2183 21.7728C27.177 21.6935 27.1131 21.632 27.0265 21.5883C26.9398 21.5447 26.8347 21.5229 26.7109 21.5229C26.5872 21.5189 26.4758 21.5388 26.3768 21.5824C26.2819 21.626 26.2077 21.6855 26.154 21.7609C26.1004 21.8363 26.0695 21.9255 26.0612 22.0287C26.0571 22.104 26.0695 22.1695 26.0983 22.225C26.1272 22.2766 26.1685 22.3242 26.2221 22.3678C26.2757 22.4075 26.3397 22.4452 26.4139 22.4809C26.4923 22.5126 26.5768 22.5444 26.6676 22.5761C26.7583 22.6078 26.8532 22.6416 26.9522 22.6773C27.0925 22.7249 27.2224 22.7824 27.342 22.8498C27.4658 22.9133 27.573 22.9906 27.6638 23.0819C27.7587 23.1691 27.8288 23.2743 27.8742 23.3972C27.9237 23.5162 27.9443 23.6531 27.936 23.8078C27.9237 24.0736 27.8432 24.3076 27.6947 24.5099C27.5462 24.7083 27.342 24.865 27.0822 24.98C26.8223 25.0951 26.5232 25.1526 26.185 25.1526Z" fill="#121A2B"/>
<path d="M6.71813 25.1526C6.35101 25.1526 6.03751 25.0732 5.77763 24.9146C5.52188 24.7559 5.32801 24.5377 5.19601 24.26C5.06813 23.9823 5.01451 23.667 5.03513 23.3139C5.04751 22.949 5.1197 22.6158 5.2517 22.3143C5.38782 22.0128 5.57138 21.753 5.80238 21.5348C6.03338 21.3166 6.30357 21.148 6.61295 21.029C6.92232 20.906 7.26057 20.8446 7.6277 20.8446C8.1392 20.8446 8.54345 20.9616 8.84045 21.1956C9.14157 21.4297 9.30245 21.755 9.32307 22.1715H8.38876C8.35988 21.989 8.2712 21.8462 8.1227 21.7431C7.9742 21.636 7.76795 21.5824 7.50395 21.5824C7.19457 21.5824 6.92026 21.6538 6.68101 21.7966C6.44588 21.9354 6.2582 22.1318 6.11795 22.3857C5.98182 22.6356 5.90757 22.9291 5.8952 23.2663C5.8787 23.5083 5.90963 23.7186 5.98801 23.8971C6.06638 24.0716 6.18601 24.2065 6.34688 24.3017C6.50776 24.3929 6.7037 24.4385 6.9347 24.4385C7.18632 24.4385 7.40495 24.3949 7.59057 24.3076C7.78032 24.2164 7.93707 24.0914 8.06082 23.9328C8.18457 23.7701 8.27738 23.5857 8.33926 23.3794H7.27501L7.38638 22.7784H9.29213L8.8652 25.0812H8.10413L8.12888 24.5516C8.01751 24.6825 7.8917 24.7936 7.75145 24.8848C7.61532 24.9721 7.4627 25.0375 7.29357 25.0812C7.12445 25.1288 6.93263 25.1526 6.71813 25.1526Z" stroke="#121A2B" stroke-width="0.4"/>
<path d="M10.0238 25.0812L10.7849 20.916H12.3874C12.7051 20.916 12.9649 20.9695 13.1671 21.0766C13.3692 21.1798 13.5156 21.3186 13.6064 21.4931C13.6971 21.6637 13.7384 21.8541 13.7301 22.0644C13.7177 22.3381 13.6352 22.5801 13.4826 22.7903C13.3341 22.9966 13.1258 23.1592 12.8577 23.2782C12.5937 23.3933 12.2843 23.4508 11.9296 23.4508H11.1561L10.8591 25.0812H10.0238ZM12.307 25.0812L11.7501 23.2485H12.6226L13.2227 25.0812H12.307ZM11.2675 22.8677H11.9976C12.2575 22.8677 12.4658 22.8022 12.6226 22.6713C12.7793 22.5404 12.8618 22.3619 12.8701 22.1358C12.8783 21.9731 12.8309 21.8422 12.7277 21.7431C12.6287 21.6399 12.4637 21.5883 12.2327 21.5883H11.5026L11.2675 22.8677Z" stroke="#121A2B" stroke-width="0.4"/>
<path d="M14.0077 25.0812L16.3527 20.916H17.3056L18.1162 25.0812H17.2314L16.6621 21.8145L14.8863 25.0812H14.0077ZM14.8306 24.1351L15.1586 23.5162H17.4417L17.5469 24.1351H14.8306ZM16.2785 20.6006L16.2599 20.071L17.6831 19.3213L17.714 19.9342L16.2785 20.6006Z" stroke="#121A2B" stroke-width="0.4"/>
<path d="M19.5514 25.0812L20.2011 21.5526H18.9326L19.0502 20.916H22.4162L22.2986 21.5526H21.0302L20.3867 25.0812H19.5514Z" stroke="#121A2B" stroke-width="0.4"/>
<path d="M22.6183 25.0812L23.3793 20.916H24.2146L23.4536 25.0812H22.6183Z" stroke="#121A2B" stroke-width="0.4"/>
<path d="M26.185 25.1526C25.8715 25.1526 25.5992 25.101 25.3682 24.9979C25.1413 24.8947 24.9722 24.744 24.8608 24.5456C24.7495 24.3473 24.7165 24.1073 24.7619 23.8257H25.6467C25.626 23.9566 25.6384 24.0716 25.6838 24.1708C25.7333 24.2699 25.8117 24.3473 25.9189 24.4028C26.0262 24.4544 26.152 24.4802 26.2963 24.4802C26.4407 24.4802 26.5665 24.4564 26.6738 24.4088C26.7852 24.3572 26.8697 24.2898 26.9275 24.2065C26.9893 24.1192 27.0244 24.0161 27.0327 23.8971C27.0368 23.8177 27.0203 23.7483 26.9832 23.6888C26.9502 23.6253 26.9027 23.5698 26.8408 23.5222C26.779 23.4706 26.7047 23.427 26.6181 23.3913C26.5315 23.3516 26.4387 23.3159 26.3397 23.2842C26.2407 23.2485 26.1375 23.2128 26.0303 23.1771C25.7374 23.0819 25.5167 22.949 25.3682 22.7784C25.2197 22.6078 25.1517 22.3996 25.164 22.1536C25.1764 21.8878 25.2568 21.6578 25.4053 21.4634C25.5538 21.265 25.7518 21.1123 25.9993 21.0052C26.251 20.8981 26.5356 20.8446 26.8532 20.8446C27.142 20.8446 27.3874 20.8922 27.5895 20.9874C27.7958 21.0826 27.9484 21.2214 28.0474 21.4039C28.1505 21.5824 28.1856 21.7986 28.1526 22.0525H27.2554C27.276 21.9454 27.2637 21.8521 27.2183 21.7728C27.177 21.6935 27.1131 21.632 27.0265 21.5883C26.9398 21.5447 26.8347 21.5229 26.7109 21.5229C26.5872 21.5189 26.4758 21.5388 26.3768 21.5824C26.2819 21.626 26.2077 21.6855 26.154 21.7609C26.1004 21.8363 26.0695 21.9255 26.0612 22.0287C26.0571 22.104 26.0695 22.1695 26.0983 22.225C26.1272 22.2766 26.1685 22.3242 26.2221 22.3678C26.2757 22.4075 26.3397 22.4452 26.4139 22.4809C26.4923 22.5126 26.5768 22.5444 26.6676 22.5761C26.7583 22.6078 26.8532 22.6416 26.9522 22.6773C27.0925 22.7249 27.2224 22.7824 27.342 22.8498C27.4658 22.9133 27.573 22.9906 27.6638 23.0819C27.7587 23.1691 27.8288 23.2743 27.8742 23.3972C27.9237 23.5162 27.9443 23.6531 27.936 23.8078C27.9237 24.0736 27.8432 24.3076 27.6947 24.5099C27.5462 24.7083 27.342 24.865 27.0822 24.98C26.8223 25.0951 26.5232 25.1526 26.185 25.1526Z" stroke="#121A2B" stroke-width="0.4"/>
</svg>
