<svg width="48" height="48" viewBox="0 0 48 48" fill="none" xmlns="http://www.w3.org/2000/svg">
<path d="M12.7014 1.80247C12.065 2.00818 11.4472 2.41959 10.7921 3.07412C9.2572 4.58886 9.23848 4.75717 9.23848 13.135V20.2413L8.69565 20.821C8.09666 21.4568 4.50273 29.1615 4.20323 30.4705C4.09092 30.9567 3.99733 34.3789 3.99733 38.811V46.3473H4.74607H5.4948V38.9045C5.4948 34.1919 5.56967 31.1998 5.7007 30.7323C5.81301 30.3209 6.63662 28.3947 7.51639 26.4312L9.14489 22.8781L9.23848 28.9558C9.29463 32.3032 9.38823 35.127 9.4631 35.2392C9.53797 35.3327 9.42566 35.6693 9.21976 35.9872C9.03258 36.2864 8.86411 36.5669 8.86411 36.623C8.86411 36.8474 10.0247 37.4084 10.1744 37.2588C10.268 37.1653 11.2788 35.4449 12.4206 33.4439C13.5811 31.4429 14.7042 29.6103 14.9102 29.3672C15.6215 28.6004 16.8756 28.9184 17.2687 29.9469C17.512 30.6014 17.5307 30.5827 15.4717 34.1358C14.5171 35.8002 13.7309 37.2588 13.7309 37.371C13.7309 37.4832 14.2176 38.3996 14.8166 39.3907L15.8835 41.1859L15.9397 43.7666L16.0145 46.3473H16.7446H17.4933L17.4371 43.6731C17.381 40.9615 17.3623 40.9054 16.3889 38.998C16.3515 38.9232 17.3248 38.8671 18.5602 38.8671H20.8064L20.8813 39.8395C20.9562 40.6623 21.2557 41.3168 22.6034 43.6357C23.5019 45.1692 24.2881 46.4969 24.3629 46.5717C24.4378 46.6465 24.756 46.5343 25.093 46.3286L25.6919 45.9546L24.0073 43.056C22.1355 39.8208 21.967 39.185 22.828 38.5118C23.895 37.6702 24.5501 38.0629 25.8604 40.2696C26.7402 41.7657 27.1707 42.0836 27.6761 41.6722C27.9194 41.4665 27.9569 40.2509 27.9569 33.874V26.319L28.4248 25.8702C28.9677 25.3091 29.81 25.2717 30.409 25.7579L30.8582 26.1133L30.9518 32.7146C31.0454 38.7175 31.0828 39.3159 31.3823 39.5029C31.607 39.6525 31.7941 39.6525 32.0375 39.5029C32.2995 39.3346 32.3744 38.9232 32.4493 37.2027C32.5429 35.2766 32.5803 35.0708 32.9921 34.7342C33.5537 34.2854 34.3398 34.2854 34.9014 34.7342C35.3132 35.0708 35.3506 35.2766 35.4442 37.2027C35.5191 38.9232 35.594 39.3346 35.8748 39.5029C36.0994 39.6525 36.2866 39.6525 36.5299 39.5029C36.7732 39.3346 36.8668 38.9419 36.9417 37.5767C37.0166 36.0433 37.0914 35.8002 37.4845 35.4823C38.0461 35.0334 38.8323 35.0334 39.3938 35.4823C39.7869 35.8002 39.8618 36.0433 39.9366 37.5767C40.0115 38.9419 40.1051 39.3346 40.3672 39.5029C41.0036 39.9143 41.3405 39.4281 41.4341 37.9507C41.509 36.81 41.6026 36.5295 41.9769 36.2303C42.5759 35.7441 43.4183 35.7815 43.9611 36.3425L44.4291 36.7913V41.5787V46.3473H45.1778H45.9452L45.8891 41.3168C45.8329 36.5669 45.8142 36.249 45.4398 35.7628C44.5039 34.5098 43.0813 34.0797 41.7149 34.6407C41.0036 34.9399 40.9849 34.9399 40.5169 34.4911C39.5997 33.6122 38.4017 33.4065 37.185 33.9114C36.5299 34.1919 36.5112 34.1732 35.8748 33.6309C35.5378 33.313 35.126 33.0699 34.9763 33.0699C34.7329 33.0699 34.6955 31.2933 34.6955 19.5306C34.6955 3.97174 34.7704 4.70107 33.0857 3.01801C31.5321 1.46586 31.5321 1.46586 21.8921 1.48456C14.7417 1.48456 13.5063 1.52197 12.7014 1.80247ZM31.3823 3.50423C31.7754 3.74734 32.3183 4.28965 32.599 4.70107L33.1044 5.46779L33.1606 19.2501C33.198 32.8081 33.198 33.0325 32.8424 33.126C32.4867 33.2195 32.468 33.0886 32.4118 29.5168C32.3557 26.1133 32.3183 25.7579 31.9626 25.2904C31.2326 24.2993 30.6336 24.0001 29.4543 24.0001C28.2751 24.0001 27.6761 24.2993 26.9461 25.2904C26.5717 25.7766 26.553 26.0759 26.4968 31.5925C26.4407 38.0816 26.5343 37.745 25.0555 36.997C24.1196 36.5295 23.4083 36.5295 22.4162 36.997C21.7236 37.3523 21.3306 37.371 18.5228 37.3336L15.4155 37.2775L17.1376 34.2854C18.6164 31.7234 18.8597 31.1811 18.8597 30.4518C18.841 28.7874 17.7553 27.628 16.0894 27.5158C14.4796 27.4036 13.9181 27.8711 12.2521 30.7697L10.8295 33.2195L10.7734 19.7551C10.7547 10.704 10.7921 6.04751 10.9231 5.54259C11.1665 4.66367 12.2896 3.48553 13.1693 3.20502C13.6186 3.05541 16.4638 2.99931 22.2478 3.01801L30.671 3.05541L31.3823 3.50423Z" fill="#121A2B"/>
<path d="M15.9771 5.20583V5.95386H16.7259H17.4746V5.20583V4.45781H16.7259H15.9771V5.20583Z" fill="#121A2B"/>
<path d="M18.972 5.20583V5.95386H21.967H24.9619V5.20583V4.45781H21.967H18.972V5.20583Z" fill="#121A2B"/>
<path d="M20.2075 10.6291C19.0282 10.9283 17.3435 11.9382 16.5199 12.8171C16.1081 13.2659 15.4904 14.2009 15.1722 14.8928C14.6294 16.0336 14.5732 16.3141 14.5732 17.941C14.5732 19.6241 14.6107 19.7924 15.2658 21.1388C16.1081 22.8406 17.1938 23.8878 18.9346 24.7107C20.0764 25.253 20.3572 25.3091 21.967 25.3091C23.5768 25.3091 23.8575 25.253 24.9994 24.7107C26.7027 23.9065 27.8258 22.8219 28.612 21.2136C30.4839 17.4361 29.0238 13.135 25.2614 11.2649C24.1196 10.7039 23.6516 10.5917 22.4162 10.5356C21.5926 10.4795 20.6193 10.5356 20.2075 10.6291ZM23.8014 12.2374C25.224 12.7049 26.422 13.7147 27.1894 15.1173C27.8071 16.2393 27.8633 16.445 27.8633 17.9223C27.8633 19.381 27.8071 19.6054 27.2269 20.69C26.553 21.9243 25.823 22.6162 24.4004 23.3642C23.7078 23.7382 23.296 23.813 21.967 23.7943C20.6193 23.7943 20.2262 23.7195 19.4213 23.3081C18.0174 22.5788 17.4184 21.9991 16.7071 20.69C16.1269 19.6054 16.0707 19.381 16.0707 17.9223C16.0707 16.5572 16.1456 16.2019 16.5761 15.3791C17.2874 14.0139 17.8677 13.3968 18.9908 12.7797C20.638 11.882 22.1729 11.7137 23.8014 12.2374Z" fill="#121A2B"/>
<path d="M21.2183 13.7894C21.2183 14.0325 21.0498 14.1821 20.6754 14.2756C20.3947 14.3317 19.908 14.6497 19.6085 14.9489C19.1592 15.4164 19.0657 15.6782 19.0657 16.4262C19.0657 17.2116 19.1592 17.436 19.6646 17.9597C20.2075 18.502 20.3947 18.5581 21.7049 18.6516C22.7906 18.7451 23.2024 18.8386 23.3522 19.0817C23.7452 19.7175 23.2773 20.0728 22.0044 20.1289C21.0124 20.185 20.8252 20.1289 20.6193 19.7923C20.4508 19.5305 20.1888 19.4183 19.6646 19.4183C18.9533 19.4183 18.9346 19.437 19.0657 19.9232C19.2341 20.6338 20.0203 21.438 20.6754 21.5689C21.0498 21.6624 21.2183 21.812 21.2183 22.0551C21.2183 22.3543 21.3493 22.4104 21.967 22.4104C22.5847 22.4104 22.7157 22.3543 22.7157 22.0551C22.7157 21.812 22.8842 21.6624 23.2586 21.5689C23.5393 21.5128 24.026 21.1949 24.3255 20.8957C24.7748 20.4281 24.8684 20.1663 24.8684 19.4183C24.8684 18.6329 24.7748 18.4085 24.2694 17.8849C23.7265 17.3425 23.5393 17.2864 22.2291 17.1929C21.1434 17.0994 20.7316 17.0059 20.5818 16.7441C20.1888 16.127 20.6567 15.7717 21.9296 15.7156C22.9216 15.6595 23.1088 15.7156 23.3147 16.0522C23.6517 16.5758 24.9619 16.5945 24.9619 16.0522C24.9619 15.5286 23.9137 14.4065 23.2773 14.2756C22.8842 14.1821 22.7157 14.0325 22.7157 13.7894C22.7157 13.4902 22.5847 13.4341 21.967 13.4341C21.3493 13.4341 21.2183 13.4902 21.2183 13.7894Z" fill="#121A2B"/>
<path d="M19.0282 32.004C18.3918 32.6024 18.3169 32.752 18.3169 33.6122C18.3169 34.4351 18.3918 34.6408 18.9346 35.1644L19.5336 35.7815H21.967H24.4004L24.9994 35.1644C25.5235 34.6408 25.6171 34.4351 25.6171 33.6309C25.6171 32.8268 25.5235 32.6211 24.9994 32.0975L24.4004 31.4804L22.0793 31.4243L19.7395 31.3495L19.0282 32.004ZM24.1009 33.2943C24.2506 33.5374 24.2506 33.7244 24.1009 33.9488C23.9324 34.2293 23.558 34.3041 22.0606 34.3415C20.1887 34.3976 19.7208 34.248 19.7208 33.6496C19.7208 32.9951 20.1139 32.8642 22.0419 32.9203C23.558 32.9577 23.9324 33.0325 24.1009 33.2943Z" fill="#121A2B"/>
<path d="M3.24861 10.9097L2.05063 12.1253L2.53731 12.6302L3.0427 13.1351L3.52938 12.6863L3.99734 12.2562V16.576V20.9146H4.74608H5.49481V16.576V12.2375L6.01893 12.7424L6.54304 13.2473L6.95485 12.8172C7.17947 12.5741 7.36665 12.2936 7.36665 12.2001C7.36665 11.9009 5.04557 9.69419 4.72736 9.69419C4.57761 9.69419 3.90375 10.2365 3.24861 10.9097Z" fill="#121A2B"/>
<path d="M37.6904 10.9097L36.4924 12.1253L36.9791 12.6302L37.4845 13.1351L37.9712 12.6863L38.4392 12.2562V16.576V20.9146H39.1879H39.9366V16.576V12.2375L40.4607 12.7424L40.9849 13.2473L41.3967 12.8172C41.6213 12.5741 41.8085 12.2936 41.8085 12.2001C41.8085 11.9009 39.4874 9.69419 39.1692 9.69419C39.0194 9.69419 38.3456 10.2365 37.6904 10.9097Z" fill="#121A2B"/>
<path d="M3.99733 23.1585V23.9065H4.74607H5.4948V23.1585V22.4104H4.74607H3.99733V23.1585Z" fill="#121A2B"/>
<path d="M38.4392 23.1585V23.9065H39.1879H39.9367V23.1585V22.4104H39.1879H38.4392V23.1585Z" fill="#121A2B"/>
<path d="M38.4392 26.1507V26.8987H39.1879H39.9367V26.1507V25.4026H39.1879H38.4392V26.1507Z" fill="#121A2B"/>
</svg>
