<svg width="48" height="48" viewBox="0 0 48 48" fill="none" xmlns="http://www.w3.org/2000/svg">
<path d="M13.3459 4.60208C12.1232 4.99529 11.2277 5.73042 10.6594 6.84167C10.5044 7.1665 9.60883 10.1754 8.69609 13.5092L7.04281 19.5783L5.95785 19.8005C4.51123 20.0741 3.83959 20.416 3.11628 21.2195C1.99688 22.4504 1.96244 22.7411 2.0141 31.8362C2.06577 39.7346 2.08299 39.9398 2.42742 40.6065C2.94407 41.5468 3.63293 42.2136 4.5629 42.641C5.33787 43 5.45842 43 20.4929 43C34.4424 43 35.6996 42.9829 36.2679 42.7094C37.2667 42.2307 37.99 41.5468 38.4206 40.6065C38.7995 39.8201 38.8339 39.5295 38.8339 37.0676V34.3835L39.7639 33.9732C40.7111 33.5458 41.486 32.7081 41.9166 31.6824C42.0199 31.4259 42.9671 28.0409 44.0348 24.1943C46.2564 16.0907 46.3597 15.2701 45.4987 13.7998C44.5343 12.1757 44.5343 12.1757 31.4286 8.72225C24.9361 7.01263 18.788 5.3885 17.7374 5.09787C15.7397 4.55079 14.0692 4.36273 13.3459 4.60208ZM28.6904 9.66254C36.0268 11.5944 42.2782 13.2698 42.571 13.3724C43.346 13.6459 44.1726 14.5349 44.3448 15.2701C44.4137 15.612 44.3965 16.2616 44.2932 16.7574C44.1382 17.578 44.1037 17.6293 43.6732 17.5268C43.4321 17.4755 36.1301 15.5607 27.4676 13.2869C11.796 9.14965 11.7099 9.13256 11.7615 8.72225C11.796 8.4829 11.9854 7.95292 12.1921 7.54261C12.6571 6.63652 13.4665 6.15783 14.5687 6.15783C15.0509 6.15783 20.5446 7.52552 28.6904 9.66254ZM27.0371 14.894C40.2633 18.3645 42.5538 18.9799 43.4321 19.2364C43.5699 19.2877 43.5182 19.7322 43.2254 20.7921C42.9843 21.6127 42.7604 22.3137 42.726 22.365C42.6743 22.3992 41.641 22.194 40.4355 21.8863C38.9545 21.5102 37.9384 21.1511 37.3701 20.775C36.1301 20.0057 36.0096 19.9715 34.0119 19.8347C32.4102 19.7322 30.9809 19.4073 21.4401 16.86C15.5158 15.2872 10.6077 13.9366 10.5388 13.8682C10.4699 13.7827 10.5732 13.0647 10.7799 12.2441C11.1416 10.7909 11.1588 10.7567 11.6065 10.8593C11.8476 10.9106 18.8052 12.7398 27.0371 14.894ZM17.8063 17.5609L25.4699 19.5783L17.2208 19.6296C12.6915 19.6467 8.95441 19.6296 8.91997 19.5954C8.78219 19.4757 9.86716 15.5607 10.0394 15.5607C10.091 15.5607 13.587 16.4668 17.8063 17.5609ZM35.8546 21.6982C36.3712 21.9376 36.6812 22.2282 36.9395 22.724C37.284 23.4078 37.3012 23.613 37.2495 31.5285C37.1979 39.4098 37.1806 39.6492 36.8362 40.1108C36.6468 40.3672 36.2679 40.7433 36.0096 40.9314C35.5446 41.2904 35.424 41.2904 20.4929 41.2904C5.47565 41.2904 5.4412 41.2904 4.959 40.9314C4.70067 40.7262 4.3218 40.3159 4.13236 39.9911C3.80515 39.444 3.78793 39.0508 3.73626 31.7678C3.6846 23.7839 3.73626 23.1856 4.42513 22.3137C5.18288 21.3563 4.64901 21.3905 20.4929 21.3905C34.5113 21.3734 35.1657 21.3905 35.8546 21.6982ZM40.5216 23.4933C41.4171 23.7327 42.1749 23.9549 42.2266 24.0062C42.3643 24.143 40.7799 30.1437 40.3494 31.1524C40.0566 31.8362 39.2817 32.6397 39.0922 32.4517C39.0578 32.4175 39.0061 30.2976 38.9717 27.7332C38.9372 25.1858 38.92 23.083 38.92 23.083C38.92 23.083 39.6433 23.2711 40.5216 23.4933Z" fill="#121A2B"/>
<path d="M8.36767 23.0911C7.54654 23.6189 7.51555 23.8074 7.50006 26.9742C7.50006 29.8959 7.50006 29.9148 7.90288 30.4049C8.11978 30.6876 8.5226 30.9515 8.80147 31.0081C9.06485 31.0835 11.1564 31.1023 13.4339 31.0646L17.6015 31.0081L18.0508 30.386L18.5001 29.7828V26.9553V24.1278L18.0508 23.5246L17.6015 22.9026L13.2015 22.8461C9.49865 22.8083 8.7395 22.8461 8.36767 23.0911ZM17.1057 26.9553C17.1057 29.1419 17.0902 29.2173 16.7648 29.3116C16.5634 29.3681 14.7353 29.387 12.6902 29.3681L8.97189 29.3116L8.92541 26.993L8.87893 24.6933H13.0001H17.1057V26.9553Z" fill="#121A2B"/>
<path d="M5.77985 34.2733C5.53204 34.8599 5.69134 35.2632 6.25777 35.4832C6.55869 35.5932 11.9929 35.6665 20.8256 35.6665C35.8537 35.6665 35.7475 35.6665 35.8714 34.7866C36.013 33.7967 36.7034 33.8333 20.7548 33.8333H5.99226L5.77985 34.2733Z" fill="#121A2B"/>
<path d="M5.98808 36.9428C5.57301 37.3561 5.55324 37.7695 5.96831 38.1289C6.20549 38.3626 6.73915 38.4165 8.39943 38.4165C10.2178 38.4165 10.5736 38.3626 10.8503 38.093C11.2851 37.6617 11.2654 37.2842 10.8305 36.9248C10.2771 36.4575 6.44268 36.4755 5.98808 36.9428Z" fill="#121A2B"/>
<path d="M13.2396 36.8765C13.1049 37.0232 13.0001 37.3165 13.0001 37.4998C13.0001 38.3432 13.2695 38.4165 16.6069 38.4165C18.4926 38.4165 19.8695 38.3432 20.0491 38.2332C20.2287 38.1048 20.3335 37.8482 20.3335 37.4998C20.3335 37.1515 20.2287 36.8948 20.0491 36.7665C19.8695 36.6565 18.4926 36.5832 16.6069 36.5832C13.9579 36.5832 13.4341 36.6198 13.2396 36.8765Z" fill="#121A2B"/>
</svg>
