<svg width="48" height="48" viewBox="0 0 48 48" fill="none" xmlns="http://www.w3.org/2000/svg">
<path d="M15 40.5386C15 39.6889 15.3828 39.0001 15.855 39.0001H16.2824C16.7546 39.0001 17.1373 39.6889 17.1373 40.5386V42.4616C17.1373 43.3113 16.7546 44.0001 16.2824 44.0001H15.855C15.3828 44.0001 15 43.3113 15 42.4616V40.5386Z" fill="#121A2B"/>
<path d="M41.8627 40.5386C41.8627 39.6889 42.2454 39.0001 42.7176 39.0001H43.1451C43.6172 39.0001 44 39.6889 44 40.5386V42.4616C44 43.3113 43.6172 44.0001 43.1451 44.0001H42.7176C42.2454 44.0001 41.8627 43.3113 41.8627 42.4616V40.5386Z" fill="#121A2B"/>
<path d="M12.88 35.5201H47.12V39.8401C47.12 40.547 46.5469 41.1201 45.84 41.1201H14.16C13.4531 41.1201 12.88 40.547 12.88 39.8401V35.5201Z" fill="#121A2B"/>
<path d="M13.36 32.1601H46.48V35.6801C46.48 36.7405 45.6204 37.6001 44.56 37.6001H15.28C14.2196 37.6001 13.36 36.7405 13.36 35.6801V32.1601Z" fill="#121A2B"/>
<path d="M17.9213 5.46947C17.8725 5.56112 16.7093 11.5749 15.344 18.8364L12.8572 32.0413L12.8781 34.1704C12.899 36.2572 12.899 36.3066 13.0661 36.645C13.2751 37.075 13.6722 37.4698 14.104 37.6884L14.4314 37.8505L45.3875 37.8858L45.7706 37.7377C46.2373 37.5615 46.6971 37.1314 46.9269 36.652C47.1011 36.3066 47.1011 36.2713 47.122 34.1704L47.1429 32.0413L44.6561 18.8364C43.2908 11.5749 42.1275 5.56112 42.0787 5.46947L41.9812 5.31437H18.0188L17.9213 5.46947ZM43.7366 18.639C45.0253 25.4847 46.105 31.2164 46.1259 31.3786L46.1746 31.6817H30.007C18.7015 31.6817 13.8393 31.6606 13.8393 31.6042C13.8393 31.5125 18.5691 6.36483 18.6109 6.24498C18.6388 6.17448 20.9514 6.16038 30.0139 6.17448L41.3891 6.19563L43.7366 18.639ZM46.2652 36.1092L46.0562 36.4123C45.9378 36.5815 45.7358 36.7789 45.6034 36.8635C45.3596 37.0045 45.3526 37.0045 30 37.0045C14.6474 37.0045 14.6404 37.0045 14.3966 36.8635C14.2643 36.7789 14.0622 36.5815 13.9438 36.4123L13.7349 36.1092L13.6931 32.5982H46.307L46.2652 36.1092Z" fill="#121A2B"/>
<path d="M20.0389 8.75481C19.7951 8.95221 19.8369 9.22716 20.1503 9.55147L20.415 9.82642L20.1991 10.052C19.8926 10.3834 19.816 10.5596 19.8926 10.7641C20.0319 11.1236 20.4011 11.1095 20.7703 10.7429L21.0559 10.4609L21.3276 10.7429C21.6619 11.0884 21.9893 11.1307 22.1704 10.8487C22.3097 10.6301 22.254 10.4257 21.9336 10.0943L21.6898 9.83347L21.9754 9.51622C22.3097 9.14961 22.3237 9.07206 22.1217 8.81121C21.9266 8.5574 21.7107 8.57855 21.3554 8.90286L21.0489 9.17781L20.7564 8.90286C20.429 8.5997 20.2688 8.56445 20.0389 8.75481Z" fill="#121A2B"/>
<path d="M28.6904 8.74084C28.4397 8.91709 28.4884 9.24139 28.8158 9.5798L29.0944 9.86885L28.8158 10.1438C28.5163 10.4399 28.4536 10.7149 28.6486 10.9123C28.8367 11.1097 29.1014 11.0462 29.4079 10.7431L29.6935 10.4611L29.9652 10.7431C30.2926 11.0815 30.62 11.1308 30.7941 10.87C30.9613 10.6232 30.9265 10.4822 30.62 10.1438L30.3274 9.82655L30.62 9.5093C30.9474 9.14974 30.9752 9.00169 30.7453 8.78314C30.5085 8.55754 30.3553 8.59279 30.0209 8.92414L29.7283 9.21319L29.4149 8.92414C29.0736 8.60689 28.9342 8.56459 28.6904 8.74084Z" fill="#121A2B"/>
<path d="M37.3281 8.74047C37.0843 8.90967 37.1261 9.21283 37.4535 9.57238L37.7251 9.87554L37.4535 10.1434C37.1539 10.4395 37.0913 10.7215 37.2863 10.9119C37.4744 11.1093 37.753 11.0459 38.0456 10.7427L38.3103 10.4677L38.6098 10.7427C38.9651 11.0741 39.2646 11.1164 39.4318 10.8696C39.5989 10.6228 39.5641 10.4818 39.2576 10.1434L38.9651 9.82618L39.2576 9.50893C39.5781 9.15643 39.6129 8.98017 39.4039 8.76867C39.1949 8.55717 38.986 8.59947 38.6586 8.92377L38.366 9.21283L38.0525 8.92377C37.7112 8.60652 37.5719 8.56422 37.3281 8.74047Z" fill="#121A2B"/>
<path d="M19.1821 17.7788C18.9871 17.9974 19.0359 18.23 19.3424 18.5332L19.614 18.8011L19.3424 19.1042C19.015 19.4638 18.9732 19.7669 19.217 19.9361C19.4608 20.1124 19.6001 20.0701 19.9414 19.7528L20.2549 19.4638L20.5474 19.7528C20.8748 20.0771 21.0838 20.1194 21.2928 19.9079C21.5018 19.6964 21.46 19.4849 21.1395 19.1536L20.8539 18.8575L21.1395 18.5402C21.453 18.1948 21.4948 18.0538 21.3206 17.807C21.1535 17.5602 20.8539 17.6025 20.4987 17.9339L20.1992 18.2089L19.9345 17.9339C19.6349 17.6237 19.3702 17.5673 19.1821 17.7788Z" fill="#121A2B"/>
<path d="M28.6487 17.7654C28.4606 17.9487 28.5164 18.2377 28.788 18.562L29.0458 18.8581L28.788 19.126C28.5024 19.4222 28.4537 19.7394 28.6626 19.9298C28.8647 20.1201 29.0736 20.0708 29.3941 19.7747L29.6866 19.4997L29.9931 19.7747C30.3344 20.0849 30.5573 20.1201 30.7663 19.9086C30.9753 19.6971 30.9405 19.5209 30.62 19.1683L30.3275 18.8511L30.62 18.5338C30.9265 18.1954 30.9614 18.0544 30.7942 17.8077C30.627 17.5609 30.3275 17.6032 29.9722 17.9346L29.6727 18.2095L29.408 17.9346C29.1154 17.6314 28.8368 17.568 28.6487 17.7654Z" fill="#121A2B"/>
<path d="M38.1152 17.7509C37.8923 17.913 37.9481 18.2515 38.2546 18.5687L38.5193 18.8437L38.2337 19.1609C37.8993 19.5275 37.8854 19.6051 38.0874 19.8659C38.2894 20.1268 38.5193 20.0986 38.8676 19.7743L39.1601 19.4993L39.4527 19.7743C39.8079 20.0986 40.0308 20.1268 40.2328 19.8589C40.4209 19.6262 40.3791 19.4641 40.0448 19.1186L39.794 18.8507L40.0099 18.6251C40.3164 18.2938 40.3931 18.1175 40.3164 17.913C40.1771 17.5535 39.794 17.5605 39.4387 17.9342L39.1671 18.2162L38.8815 17.9342C38.582 17.6381 38.3451 17.5746 38.1152 17.7509Z" fill="#121A2B"/>
<path d="M17.5661 26.7822C17.3293 27.0149 17.3432 27.1206 17.6706 27.4802C17.8238 27.6494 17.9492 27.8115 17.9492 27.8397C17.9492 27.8679 17.8238 28.0301 17.6706 28.1993C17.3571 28.5447 17.3362 28.6364 17.5173 28.862C17.7124 29.1017 17.984 29.0664 18.2905 28.7633C18.4298 28.6223 18.5761 28.5095 18.604 28.5095C18.6388 28.5095 18.806 28.6364 18.9732 28.7985C19.2866 29.0876 19.4608 29.1158 19.6628 28.9043C19.8718 28.6998 19.8439 28.5236 19.5583 28.2063C19.3981 28.0371 19.2727 27.8679 19.2727 27.8327C19.2727 27.8045 19.3842 27.6564 19.5235 27.5154C19.823 27.2052 19.8578 26.9303 19.621 26.7329C19.3981 26.5496 19.3075 26.5707 18.9662 26.888C18.799 27.0431 18.6388 27.17 18.611 27.17C18.5831 27.17 18.4229 27.0431 18.2557 26.888C17.9004 26.5566 17.796 26.5425 17.5661 26.7822Z" fill="#121A2B"/>
<path d="M28.6905 26.7187C28.4397 26.895 28.4885 27.2193 28.8159 27.5577L29.0945 27.8468L28.8159 28.1217C28.4119 28.5236 28.4258 28.8972 28.8647 29.0312C28.9831 29.0735 29.0876 29.0171 29.3244 28.7985C29.4916 28.6364 29.6588 28.5095 29.6936 28.5095C29.7215 28.5095 29.8677 28.6223 30.0071 28.7633C30.3135 29.0664 30.5852 29.1017 30.7803 28.862C30.9683 28.6293 30.9335 28.4954 30.62 28.1288L30.3344 27.8045L30.62 27.4872C30.9544 27.1206 30.9683 27.0148 30.7315 26.7822C30.5016 26.5425 30.3971 26.5566 30.0279 26.902L29.7145 27.1911L29.4916 26.9796C29.2687 26.7681 29.0179 26.6059 28.9065 26.6059C28.8716 26.6059 28.7741 26.6553 28.6905 26.7187Z" fill="#121A2B"/>
<path d="M39.8914 26.6545C39.7312 26.7109 39.6128 26.8942 39.6128 27.0775C39.6128 27.1691 39.7312 27.3736 39.8914 27.5498L40.1631 27.853L39.8914 28.1209C39.5152 28.4875 39.5152 28.7977 39.8775 28.9951C40.0655 29.0938 40.2327 29.0233 40.574 28.699L40.7969 28.4804L41.0616 28.7342C41.403 29.0727 41.5632 29.115 41.7931 28.9246C42.0578 28.7201 42.0299 28.4945 41.7095 28.135L41.4378 27.8389L41.7095 27.5428C42.0299 27.1903 42.0578 26.9576 41.8 26.7532C41.5423 26.5487 41.4657 26.5628 41.1034 26.9012L40.79 27.1903L40.5322 26.9435C40.2606 26.6827 40.0655 26.591 39.8914 26.6545Z" fill="#121A2B"/>
<path fill-rule="evenodd" clip-rule="evenodd" d="M11.1715 1.46456L14.3535 4.64654C14.5488 4.8418 14.5488 5.15839 14.3535 5.35365L11.1715 8.53563C10.9763 8.73089 10.6597 8.73089 10.4644 8.53563C10.2692 8.34037 10.2692 8.02378 10.4644 7.82852L12.7929 5.5001L4.99997 5.5001L4.99997 22.793L7.3284 20.4646C7.52366 20.2693 7.84025 20.2693 8.03551 20.4646C8.23077 20.6598 8.23077 20.9764 8.03551 21.1717L4.85353 24.3536C4.65826 24.5489 4.34168 24.5489 4.14642 24.3536L0.96444 21.1717C0.769178 20.9764 0.769178 20.6598 0.96444 20.4646C1.1597 20.2693 1.47628 20.2693 1.67155 20.4646L3.99997 22.793L3.99997 4.5001L12.7929 4.5001L10.4644 2.17167C10.2692 1.97641 10.2692 1.65982 10.4644 1.46456C10.6597 1.2693 10.9763 1.2693 11.1715 1.46456Z" fill="#121A2B"/>
</svg>
